<?xml version="1.0" encoding="UTF-8" standalone="no"?>
<!-- Created with Inkscape (http://www.inkscape.org/) -->

<svg
   width="25.101051mm"
   height="25.075457mm"
   viewBox="0 0 25.101052 25.075457"
   version="1.1"
   id="svg1"
   xml:space="preserve"
   sodipodi:docname="sai-new-2.svg"
   xmlns:inkscape="http://www.inkscape.org/namespaces/inkscape"
   xmlns:sodipodi="http://sodipodi.sourceforge.net/DTD/sodipodi-0.dtd"
   xmlns="http://www.w3.org/2000/svg"
   xmlns:svg="http://www.w3.org/2000/svg"><sodipodi:namedview
     id="namedview1"
     pagecolor="#ffffff"
     bordercolor="#000000"
     borderopacity="0.25"
     inkscape:showpageshadow="2"
     inkscape:pageopacity="0.0"
     inkscape:pagecheckerboard="0"
     inkscape:deskcolor="#d1d1d1"
     inkscape:document-units="mm" /><defs
     id="defs1" /><g
     inkscape:label="Layer 1"
     inkscape:groupmode="layer"
     id="layer1"
     transform="translate(311.45849,-181.48493)"><path
       d="m -307.14162,206.33575 c -2.2167,-0.53038 -3.93048,-2.50859 -4.2149,-4.86524 -0.0908,-0.75272 -0.12802,-4.6428 -0.0826,-8.64463 0.0816,-7.19725 0.0897,-7.28882 0.744,-8.45642 0.74372,-1.32718 1.96199,-2.2582 3.49518,-2.67104 0.64869,-0.17467 3.96137,-0.24841 8.88973,-0.19788 7.81819,0.0802 7.86135,0.0837 9.0361,0.74202 1.30104,0.72907 2.24436,1.94155 2.65183,3.40845 0.3667,1.32013 0.3468,15.47802 -0.0237,16.83217 -0.40752,1.48963 -2.42051,3.39272 -4.01272,3.79364 -1.35642,0.34155 -15.09644,0.39067 -16.48295,0.0589 z"
       style="fill:#000000"
       id="path1" /></g></svg>
