<?xml version="1.0" encoding="UTF-8" standalone="no"?>
<!-- Created with Inkscape (http://www.inkscape.org/) -->

<svg
   width="198.70328mm"
   height="201.07719mm"
   viewBox="0 0 198.70328 201.07719"
   version="1.1"
   id="svg1"
   xml:space="preserve"
   xmlns:inkscape="http://www.inkscape.org/namespaces/inkscape"
   xmlns:sodipodi="http://sodipodi.sourceforge.net/DTD/sodipodi-0.dtd"
   xmlns="http://www.w3.org/2000/svg"
   xmlns:svg="http://www.w3.org/2000/svg"><sodipodi:namedview
     id="namedview1"
     pagecolor="#ffffff"
     bordercolor="#000000"
     borderopacity="0.25"
     inkscape:showpageshadow="2"
     inkscape:pageopacity="0.0"
     inkscape:pagecheckerboard="0"
     inkscape:deskcolor="#d1d1d1"
     inkscape:document-units="mm"><inkscape:page
       x="0"
       y="0"
       width="198.70328"
       height="201.07719"
       id="page2"
       margin="0"
       bleed="0" /></sodipodi:namedview><defs
     id="defs1" /><g
     inkscape:label="Layer 1"
     inkscape:groupmode="layer"
     id="layer1"
     transform="translate(223.32435,-5.1925971)"><path
       style="fill:#000000"
       d="m -216.53294,205.91363 c -2.37822,-0.75411 -4.28038,-2.19234 -5.48524,-4.14744 -1.28225,-2.08066 -1.26164,-1.55337 -1.26164,-32.2672 0,-20.79078 0.0834,-29.00111 0.30113,-29.65146 0.49455,-1.47709 1.53889,-2.63773 2.9752,-3.30651 1.32838,-0.61853 1.49912,-0.63045 9.06273,-0.63299 l 7.70885,-0.003 1.41519,0.7393 c 1.03005,0.53811 1.63232,1.09041 2.21303,2.02942 l 0.79784,1.29011 0.13229,18.93881 0.13229,18.93882 0.70175,1.19062 c 0.67423,1.14394 1.4533,1.86841 2.87013,2.66896 0.5476,0.30942 4.09977,0.39652 20.6375,0.50604 l 19.97604,0.13229 1.10915,0.59287 c 1.23401,0.65961 2.23537,1.85679 2.69077,3.21693 0.1964,0.58661 0.30112,3.46491 0.30112,8.27673 0,8.02636 -0.0801,8.55377 -1.53539,10.10569 -0.39246,0.41853 -1.18982,0.98147 -1.7719,1.25096 -1.01123,0.46819 -2.4126,0.48947 -31.48542,0.47811 -23.81694,-0.009 -30.65701,-0.0848 -31.48542,-0.34748 z m 83.74063,-0.0445 c -1.44824,-0.63525 -2.61646,-1.93587 -3.04996,-3.39562 -0.46392,-1.56221 -0.56067,-14.2156 -0.1208,-15.79917 0.40747,-1.46692 1.3508,-2.6794 2.65183,-3.40846 l 1.18039,-0.66146 h 8.06979 8.06979 l 1.23714,0.72725 c 0.93717,0.55092 1.40506,1.07047 1.9297,2.14279 l 0.69256,1.41554 -0.0776,7.77908 c -0.0883,8.85541 -0.15624,9.17009 -2.30624,10.6895 l -1.12317,0.79375 -8.11368,0.0615 c -6.81234,0.0516 -8.26222,-0.004 -9.03973,-0.3447 z m 38.940286,0.1144 c -1.21458,-0.34989 -3.02865,-2.23851 -3.42531,-3.56606 -0.4341,-1.45283 -0.45428,-14.98351 -0.0243,-16.26784 0.45539,-1.36014 1.45676,-2.55732 2.69076,-3.21693 l 1.10916,-0.59287 19.57916,-0.13229 19.57917,-0.13229 1.26396,-0.6224 c 0.69518,-0.34232 1.5547,-1.00357 1.91005,-1.46945 1.50523,-1.97347 1.4562,-1.27957 1.4562,-20.6058 0,-19.83578 -0.0137,-19.66647 1.74674,-21.61505 1.56054,-1.72733 2.31713,-1.8573 10.80195,-1.85562 4.61334,9.2e-4 7.82832,0.11248 8.48568,0.29446 0.65516,0.18137 1.52527,0.76038 2.28404,1.51988 0.9921,0.99307 1.28315,1.50496 1.52716,2.68588 0.21735,1.05191 0.28139,9.39387 0.22951,29.89792 l -0.072,28.43893 -0.59431,1.46787 c -0.80759,1.99464 -1.95923,3.49288 -3.43749,4.47204 -2.53385,1.67835 -0.90793,1.60306 -34.05007,1.57685 -18.36438,-0.0145 -30.52497,-0.12306 -31.06013,-0.27723 z m -32.590286,-39.40567 c -0.88652,-0.39969 -3.74667,-3.0845 -11.19787,-10.51137 -5.50398,-5.48602 -10.23672,-10.41631 -10.51719,-10.95622 -0.74898,-1.4418 -0.66429,-3.03718 0.2366,-4.45666 0.41059,-0.64695 1.90602,-2.26413 3.32318,-3.59374 2.78058,-2.60879 4.04486,-3.23866 5.75926,-2.86924 1.56301,0.3368 2.11745,0.79594 7.36894,6.10219 3.01138,3.04278 5.53518,5.3716 6.06204,5.59371 1.89133,0.7973 2.30358,0.52639 8.35775,-5.49219 6.62589,-6.58694 7.43163,-7.05484 10.05417,-5.83847 1.43338,0.66482 6.65123,6.0064 6.88118,7.04436 0.096,0.43314 0.225206,0.9491 0.287226,1.14658 0.062,0.19749 -0.0169,0.85233 -0.175326,1.45521 -0.24942,0.94901 -1.67923,2.4939 -10.65205,11.50934 -6.88764,6.92036 -10.71894,10.57924 -11.42229,10.90825 -1.37289,0.64221 -2.88061,0.62779 -4.36562,-0.0418 z m -35.05729,-34.54629 c -1.31998,-0.687 -20.49096,-19.92498 -21.05566,-21.12924 -0.59002,-1.25828 -0.64879,-2.99717 -0.14113,-4.17568 0.41044,-0.95281 20.10626,-20.720136 21.23385,-21.310936 0.96292,-0.50453 2.96169,-0.49512 3.93169,0.0185 0.43656,0.23116 2.17663,1.82934 3.86681,3.5515 3.37084,3.4346 3.70458,4.09448 3.13695,6.20248 -0.24456,0.90822 -1.20449,2.01644 -5.63365,6.503906 -2.93637,2.97504 -5.44021,5.70524 -5.56408,6.06712 -0.57696,1.68555 -0.15698,2.29742 5.511,8.02897 4.40982,4.45928 5.43267,5.63439 5.7077,6.55736 0.58938,1.97794 0.0967,2.93423 -3.28299,6.37257 -1.62139,1.64953 -3.2695,3.16758 -3.66246,3.37344 -0.93758,0.49119 -3.04912,0.4599 -4.04803,-0.06 z m 69.967936,-0.32873 c -1.37182,-0.88988 -4.92327,-4.4651 -5.91503,-5.95462 -0.80744,-1.2127 -0.91233,-2.9104 -0.26008,-4.20955 0.23382,-0.46571 2.79367,-3.23463 5.68855,-6.15315 5.18114,-5.22345 5.26341,-5.32394 5.26341,-6.42928 0,-0.61759 -0.17057,-1.4444 -0.37905,-1.83736 -0.20848,-0.39296 -2.60184,-2.91712 -5.31859,-5.60926 -2.71674,-2.692126 -5.10601,-5.277916 -5.30949,-5.746186 -0.47539,-1.09405 -0.47339,-2.8139 0.004,-3.7258 0.69032,-1.31768 6.28987,-6.56846 7.38201,-6.92221 1.08394,-0.3511 2.4985,-0.19844 3.61163,0.38977 0.36883,0.1949 5.20447,4.91742 10.74587,10.4945 8.52963,8.584546 10.12277,10.307206 10.3849,11.229166 0.37907,1.33329 0.38062,1.54757 0.0208,2.87972 -0.24154,0.89439 -1.87053,2.64918 -10.51571,11.32781 -6.19252,6.21648 -10.58202,10.41945 -11.1221,10.64948 -1.45014,0.61764 -2.94508,0.4839 -4.28152,-0.38303 z M -132.41379,121.1049 c -2.2167,-0.53038 -3.93048,-2.50859 -4.2149,-4.86524 -0.0908,-0.75272 -0.12802,-4.6428 -0.0826,-8.64462 0.0816,-7.19725 0.0897,-7.28882 0.744,-8.456426 0.74372,-1.32718 1.96199,-2.2582 3.49518,-2.67104 0.64869,-0.17467 3.96137,-0.24841 8.88973,-0.19788 7.81819,0.0802 7.86135,0.0837 9.0361,0.74202 1.30104,0.72907 2.24436,1.94155 2.65183,3.408456 0.3667,1.32013 0.3468,15.47801 -0.0237,16.83216 -0.40752,1.48963 -2.42051,3.39272 -4.01272,3.79364 -1.35642,0.34155 -15.09644,0.39067 -16.48295,0.0589 z m -86.5004,-1.57903 c -1.91299,-0.48355 -3.25939,-1.59331 -3.95612,-3.26084 -0.60538,-1.44887 -0.60538,-16.684856 0,-18.133726 0.524,-1.25412 1.30481,-2.08408 2.6332,-2.79899 1.01831,-0.54802 1.36857,-0.56956 9.26042,-0.56956 h 8.20208 l 1.24974,0.73463 c 0.81041,0.47639 1.50799,1.17397 1.98438,1.98438 l 0.73464,1.24974 v 8.487586 8.48759 l -0.79612,1.28751 c -0.56498,0.91371 -1.17715,1.48374 -2.10859,1.96345 -1.3099,0.67461 -1.32735,0.67603 -8.86118,0.7224 -4.15179,0.0256 -7.90589,-0.0438 -8.34245,-0.15417 z m 173.831256,-0.0308 c -1.84189,-0.39402 -3.25233,-1.54558 -3.95613,-3.23 -0.3393,-0.81207 -0.4095,-2.36632 -0.4095,-9.06686 0,-6.70055 0.0702,-8.254796 0.4095,-9.066866 0.52401,-1.25412 1.30481,-2.08408 2.63321,-2.79899 0.9984,-0.53731 1.47787,-0.57452 8.46667,-0.6571 8.35275,-0.0987 9.68689,0.062 11.14473,1.34196 1.92432,1.68957 1.95214,1.84702 1.95214,11.046656 0,6.82179 -0.0697,8.38794 -0.4095,9.2012 -0.52401,1.25412 -1.30481,2.08408 -2.63321,2.79899 -1.01163,0.54443 -1.39687,0.57025 -8.73125,0.58519 -4.2201,0.009 -8.0301,-0.0608 -8.46666,-0.15418 z M -141.25898,82.835134 c -1.02775,-0.44125 -6.43523,-5.65524 -7.03001,-6.77847 -0.64382,-1.21586 -0.48348,-3.11892 0.3757,-4.45926 0.41471,-0.64695 5.24489,-5.581591 10.73372,-10.965862 8.11595,-7.961347 10.21102,-9.880097 11.21837,-10.274253 1.36486,-0.534041 2.69622,-0.452025 4.11073,0.253235 0.45766,0.228189 5.44873,5.017049 11.09125,10.641912 9.39129,9.361888 10.29204,10.336988 10.64805,11.526988 0.573846,1.91813 0.196426,2.96429 -1.88937,5.23714 -2.86803,3.12525 -4.99813,4.92408 -6.06872,5.12492 -2.08964,0.39202 -2.74709,-0.0582 -8.71576,-5.96786 -3.05594,-3.02575 -5.81631,-5.63404 -6.13417,-5.7962 -0.86818,-0.44293 -1.9662,-0.35487 -2.93416,0.23529 -0.47644,0.29049 -3.26146,2.90846 -6.18893,5.81773 -6.10814,6.07015 -6.7669,6.45645 -9.2167,5.40469 z m -78.08249,-4.97382 c -1.38395,-0.49457 -2.49056,-1.3557 -3.19209,-2.48399 l -0.61396,-0.9875 V 43.301283 12.212741 l 0.69722,-1.486961 c 0.98069,-2.0915294 2.38002,-3.5259924 4.41879,-4.5297474 l 1.75177,-0.862459 30.56507,-0.07346 c 27.39773,-0.06585 30.68001,-0.02991 31.67427,0.346777 1.62469,0.615539 2.45143,1.370505 3.1547,2.880817 0.61257,1.315537 0.62577,1.505629 0.6283,9.0433644 0.002,5.059441 -0.10066,8.007972 -0.29853,8.598958 -0.42635,1.273395 -1.3764,2.467519 -2.53749,3.189402 l -0.99785,0.620393 -19.97604,0.132291 c -19.8372,0.131373 -19.9834,0.136262 -21.03438,0.703373 -1.38546,0.747604 -2.3568,1.797412 -3.0213,3.265378 -0.52574,1.161444 -0.53909,1.64978 -0.54476,19.925025 -0.004,12.898832 -0.0978,19.099872 -0.30125,19.907702 -0.41042,1.6299 -2.02484,3.39827 -3.589,3.93123 -1.63435,0.55688 -15.25493,0.60268 -16.78347,0.0564 z m 174.124526,0.12511 c -1.8348,-0.57833 -2.97415,-1.52034 -3.86994,-3.19967 -0.46592,-0.87346 -0.50148,-2.04526 -0.62626,-20.637504 -0.14649,-21.82622 -0.0214,-20.365817 -1.89566,-22.129233 -2.05341,-1.931959 -0.55938,-1.800762 -22.18143,-1.947851 l -19.44687,-0.132291 -1.12084,-0.641989 c -1.23921,-0.709785 -2.32553,-2.098893 -2.72172,-3.480335 -0.14217,-0.495697 -0.25848,-4.177057 -0.25848,-8.180801 0,-4.003745 0.11631,-7.6851054 0.25848,-8.1808014 0.44331,-1.545741 1.56723,-2.879881 3.02831,-3.59472 l 1.36664,-0.668632 30.54776,0.07051 30.54777,0.07051 1.48417,0.728875 c 1.96272,0.963883 3.95156,3.094922 4.75842,5.0986434 l 0.63657,1.580816 v 30.294792 c 0,24.600304 -0.0664,30.482554 -0.35346,31.293704 -0.47458,1.34116 -1.46712,2.47294 -2.78867,3.17988 -1.04734,0.56024 -1.40495,0.58575 -8.89641,0.63442 -4.29286,0.0279 -8.10363,-0.0434 -8.46838,-0.15833 z M -132.39544,28.351647 c -1.37888,-0.487769 -2.9273,-2.159978 -3.3075,-3.571923 -0.20161,-0.748756 -0.27325,-3.536352 -0.21665,-8.430294 0.0922,-7.9670124 0.11461,-8.0929244 1.7146,-9.6127084 1.53704,-1.459994 2.04518,-1.535389 10.34807,-1.535389 h 7.62946 l 1.3787,0.687036 c 1.02358,0.510072 1.56513,1.004163 2.10247,1.918229 l 0.72377,1.231193 0.0821,7.2755864 c 0.0587,5.19944 -0.0113,7.60919 -0.24518,8.444659 -0.4279,1.528293 -2.13556,3.311375 -3.54112,3.697515 -1.65733,0.455304 -15.32883,0.370083 -16.66876,-0.103904 z"
       id="path1" /></g></svg>
