<?xml version="1.0" encoding="UTF-8" standalone="no"?>
<!-- Created with Inkscape (http://www.inkscape.org/) -->

<svg
   width="155.97035mm"
   height="142.80025mm"
   viewBox="0 0 155.97035 142.80025"
   version="1.1"
   id="svg1"
   xml:space="preserve"
   xmlns="http://www.w3.org/2000/svg"
   xmlns:svg="http://www.w3.org/2000/svg"><defs
     id="defs1" /><g
     id="layer1"
     transform="translate(-24.267389,-47.301833)"><path
       style="fill:#ffffff;fill-opacity:1"
       d="m 43.581971,189.87333 c -5.294054,-0.47504 -9.335479,-2.35202 -13.039426,-6.05597 -2.785067,-2.78507 -4.810516,-6.35492 -5.804148,-10.2298 -0.443691,-1.73026 -0.471008,-4.8137 -0.471008,-53.16596 0,-47.827044 0.03128,-51.450794 0.458434,-53.111754 1.864504,-7.24994 6.068514,-12.81695 12.545627,-16.61309 2.263588,-1.32665 6.676412,-2.77568 9.623838,-3.16015 1.592239,-0.2077 18.016674,-0.27045 56.614802,-0.21629 l 54.37188,0.0763 2.54499,0.70356 c 5.07923,1.40415 9.16021,3.76728 12.66855,7.33583 3.45154,3.51079 5.66537,7.62111 6.64286,12.33352 0.47204,2.27572 0.49409,4.61253 0.49741,52.729384 0.004,55.30716 0.0937,52.10254 -1.57831,56.29791 -1.06614,2.6752 -2.44688,4.71612 -4.74574,7.01486 -3.35942,3.35922 -7.86643,5.47907 -12.86702,6.05191 -2.7203,0.31163 -113.995594,0.32087 -117.462739,0.01 z M 155.63301,167.78202 v -5.42396 h 3.43958 3.43958 v -2.91042 -2.91041 h -5.95312 -5.95313 v 6.08541 6.08542 H 95.704887 40.803846 v -31.61771 -31.6177 H 38.158013 35.51218 v 33.86666 33.86667 h 60.060407 60.060423 z m 13.22916,-0.13229 v -2.91042 h -2.59485 -2.59485 l 0.0393,2.3151 c 0.0668,3.9264 -0.24966,3.50573 2.63681,3.50573 h 2.51354 z m -64.06198,-28.24427 c 9.88483,-30.01326 12.20365,-37.11712 12.20365,-37.38673 0,-0.14644 -1.68927,-0.25025 -4.07209,-0.25025 h -4.07209 l -9.333083,28.11198 c -5.1332,15.46159 -9.38568,28.2608 -9.44997,28.4427 -0.0904,0.25571 0.84727,0.33073 4.13362,0.33073 h 4.25051 z M 168.86217,120.9502 V 87.479826 l -59.86197,0.0667 -59.861979,0.0667 0.02438,4.15979 0.02438,4.1598 -3.463963,0.0735 -3.463963,0.0735 -0.07454,3.10885 -0.07454,3.108864 h 6.093813 6.093813 v -4.762504 -4.7625 l 54.702609,-2e-5 54.7026,-1e-5 -0.0772,29.699494 c -0.0425,16.33472 -0.005,30.20551 0.0824,30.82397 l 0.1596,1.12448 h 2.49733 2.49733 z m -81.674326,28.10212 1.472213,-4.4422 -1.003123,-0.71717 c -0.551719,-0.39445 -5.246069,-3.57248 -10.431889,-7.0623 -8.892777,-5.98442 -9.402583,-6.37045 -8.968211,-6.79077 0.253304,-0.2451 2.960865,-2.14059 6.016802,-4.2122 14.038786,-9.51681 16.007291,-10.87687 16.007291,-11.05957 0,-0.16633 -4.68031,-6.36825 -5.284243,-7.0022 -0.19347,-0.20308 -34.198609,22.3707 -34.328848,22.78867 -0.08945,0.28707 34.682014,23.34937 34.876333,23.13186 0.0943,-0.10556 0.833956,-2.19091 1.643675,-4.63412 z m 40.881866,-0.80634 c 3.73643,-2.52289 11.02023,-7.42082 16.18622,-10.88429 5.16598,-3.46347 9.53366,-6.42967 9.70594,-6.59157 0.23491,-0.22075 -1.58432,-1.56157 -7.27604,-5.36262 -8.55156,-5.7109 -16.76756,-11.25872 -22.28718,-15.04935 -2.04872,-1.40697 -3.77593,-2.50716 -3.83823,-2.44486 -0.0623,0.0623 -0.80388,2.15361 -1.64795,4.64734 l -1.53467,4.53407 5.56771,3.77339 c 3.06224,2.07536 7.43841,5.02657 9.72482,6.55824 2.28642,1.53167 4.1558,2.90392 4.15418,3.04944 -0.002,0.14552 -4.72982,3.45323 -10.50712,7.35048 -5.77729,3.89724 -10.76183,7.29052 -11.07675,7.54062 -0.57166,0.45401 -0.56766,0.46027 2.51355,3.93683 1.69736,1.91515 3.18419,3.49273 3.30406,3.50573 0.11987,0.013 3.27503,-2.04056 7.01146,-4.56345 z M 40.539263,90.920556 c 0,-1.60073 6.05e-4,-2.99971 0.0013,-3.10885 7.4e-4,-0.10915 -1.130353,-0.23252 -2.513541,-0.27417 l -2.514887,-0.0757 v 3.18458 3.18458 h 2.513541 2.513542 z m 128.318317,-15.0151 c -0.008,-6.69554 -1.00799,-9.5433 -4.64386,-13.22324 -1.66128,-1.68142 -2.59862,-2.38955 -4.1183,-3.11124 -3.89131,-1.84797 -0.0659,-1.73982 -58.77244,-1.66162 -50.702495,0.0675 -53.041026,0.0916 -54.433717,0.55909 -5.653782,1.89797 -9.74571,6.11763 -10.970302,11.31273 -0.265804,1.12762 -0.400265,3.08333 -0.40287,5.85969 l -0.0039,4.16719 h 66.674999 66.67499 z M 49.844201,73.154916 c -2.753216,-1.36281 -3.470539,-4.97935 -1.461255,-7.36725 0.976306,-1.16027 1.967071,-1.59003 3.665691,-1.59003 2.894797,0 4.668006,1.75677 4.668006,4.62472 0,2.17127 -0.98854,3.64638 -3.009473,4.49078 -1.342498,0.56093 -2.506407,0.51326 -3.862969,-0.15822 z m 13.805556,0.0234 c -2.176494,-1.07736 -3.214334,-3.68719 -2.357974,-5.92953 1.118854,-2.92968 4.583919,-4.11102 7.094907,-2.41887 3.21411,2.16599 2.819442,6.78919 -0.716691,8.39543 -1.402069,0.63687 -2.668542,0.62206 -4.020242,-0.047 z m 14.063462,0.35442 c -0.722379,-0.17549 -2.16919,-1.29444 -2.678198,-2.07128 -2.818025,-4.30085 2.557219,-9.52136 6.835194,-6.63843 2.44303,1.64636 2.801975,5.52898 0.693178,7.49796 -1.226823,1.14548 -3.147623,1.62536 -4.850174,1.21175 z m 58.605211,-1.79444 v -1.98437 h 2.64583 2.64583 v 1.98437 1.98438 h -2.64583 -2.64583 z m 8.99583,0 v -1.98437 h 5.82083 5.82083 v 1.98437 1.98438 h -5.82083 -5.82083 z"
       id="path1" /></g></svg>
