<?xml version="1.0" encoding="UTF-8" standalone="no"?>
<!-- Created with Inkscape (http://www.inkscape.org/) -->

<svg
   width="117.69488mm"
   height="117.0802mm"
   viewBox="0 0 117.69488 117.0802"
   version="1.1"
   id="svg1"
   xml:space="preserve"
   xmlns:inkscape="http://www.inkscape.org/namespaces/inkscape"
   xmlns:sodipodi="http://sodipodi.sourceforge.net/DTD/sodipodi-0.dtd"
   xmlns="http://www.w3.org/2000/svg"
   xmlns:svg="http://www.w3.org/2000/svg"><sodipodi:namedview
     id="namedview1"
     pagecolor="#ffffff"
     bordercolor="#000000"
     borderopacity="0.25"
     inkscape:showpageshadow="2"
     inkscape:pageopacity="0.0"
     inkscape:pagecheckerboard="0"
     inkscape:deskcolor="#d1d1d1"
     inkscape:document-units="mm"><inkscape:page
       x="-6.6991815e-21"
       y="0"
       width="117.69488"
       height="117.0802"
       id="page2"
       margin="0"
       bleed="0" /></sodipodi:namedview><defs
     id="defs1" /><g
     inkscape:label="Layer 1"
     inkscape:groupmode="layer"
     id="layer1"
     transform="translate(389.47605,-40.417133)"><path
       d="m -332.87752,156.98433 c -0.88652,-0.39969 -3.74667,-3.0845 -11.19787,-10.51137 -5.50398,-5.48602 -10.23672,-10.41631 -10.51719,-10.95622 -0.74898,-1.4418 -0.66429,-3.03718 0.2366,-4.45666 0.41059,-0.64695 1.90602,-2.26413 3.32318,-3.59374 2.78058,-2.60879 4.04486,-3.23866 5.75926,-2.86924 1.56301,0.3368 2.11745,0.79594 7.36894,6.10219 3.01138,3.04278 5.53518,5.3716 6.06204,5.59371 1.89133,0.7973 2.30358,0.52639 8.35775,-5.49219 6.62589,-6.58694 7.43163,-7.05484 10.05417,-5.83847 1.43338,0.66482 6.65123,6.0064 6.88118,7.04436 0.096,0.43314 0.22521,0.9491 0.28723,1.14658 0.062,0.19749 -0.0169,0.85233 -0.17533,1.45521 -0.24942,0.94901 -1.67923,2.4939 -10.65205,11.50934 -6.88764,6.92036 -10.71894,10.57924 -11.42229,10.90825 -1.37289,0.64221 -2.88061,0.62779 -4.36562,-0.0418 z m -35.05729,-34.54629 c -1.31998,-0.687 -20.49096,-19.92498 -21.05566,-21.12924 -0.59002,-1.25828 -0.64879,-2.997174 -0.14113,-4.175684 0.41044,-0.95281 20.10626,-20.720136 21.23385,-21.310936 0.96292,-0.50453 2.96169,-0.49512 3.93169,0.0185 0.43656,0.23116 2.17663,1.82934 3.86681,3.5515 3.37084,3.4346 3.70458,4.09448 3.13695,6.20248 -0.24456,0.90822 -1.20449,2.01644 -5.63365,6.503906 -2.93637,2.97504 -5.44021,5.70524 -5.56408,6.06712 -0.57696,1.68555 -0.15698,2.297424 5.511,8.028974 4.40982,4.45928 5.43267,5.63439 5.7077,6.55736 0.58938,1.97794 0.0967,2.93423 -3.28299,6.37257 -1.62139,1.64953 -3.2695,3.16758 -3.66246,3.37344 -0.93758,0.49119 -3.04912,0.4599 -4.04803,-0.06 z m 69.96794,-0.32873 c -1.37182,-0.88988 -4.92327,-4.4651 -5.91503,-5.95462 -0.80744,-1.2127 -0.91233,-2.9104 -0.26008,-4.20955 0.23382,-0.46571 2.79367,-3.23463 5.68855,-6.15315 5.18114,-5.22345 5.26341,-5.32394 5.26341,-6.429284 0,-0.61759 -0.17057,-1.4444 -0.37905,-1.83736 -0.20848,-0.39296 -2.60184,-2.91712 -5.31859,-5.60926 -2.71674,-2.692126 -5.10601,-5.277916 -5.30949,-5.746186 -0.47539,-1.09405 -0.47339,-2.8139 0.004,-3.7258 0.69032,-1.31768 6.28987,-6.56846 7.38201,-6.92221 1.08394,-0.3511 2.4985,-0.19844 3.61163,0.38977 0.36883,0.1949 5.20447,4.91742 10.74587,10.4945 8.52963,8.584546 10.12277,10.307206 10.3849,11.229166 0.37907,1.33329 0.38062,1.54757 0.0208,2.879724 -0.24154,0.89439 -1.87053,2.64918 -10.51571,11.32781 -6.19252,6.21648 -10.58202,10.41945 -11.1221,10.64948 -1.45014,0.61764 -2.94508,0.4839 -4.28152,-0.38303 z M -338.849,111.51137 c -2.2167,-0.53038 -3.93048,-2.50859 -4.2149,-4.86524 -0.0908,-0.75272 -0.12802,-4.6428 -0.0826,-8.644624 0.0816,-7.19725 0.0897,-7.28882 0.744,-8.456426 0.74372,-1.32718 1.96199,-2.2582 3.49518,-2.67104 0.64869,-0.17467 3.96137,-0.24841 8.88973,-0.19788 7.81819,0.0802 7.86135,0.0837 9.0361,0.74202 1.30104,0.72907 2.24436,1.94155 2.65183,3.408456 0.3667,1.32013 0.3468,15.478014 -0.0237,16.832164 -0.40752,1.48963 -2.42051,3.39272 -4.01272,3.79364 -1.35642,0.34155 -15.09644,0.39067 -16.48295,0.0589 z m -8.84519,-38.26977 c -1.02775,-0.44125 -6.43523,-5.65524 -7.03001,-6.77847 -0.64382,-1.21586 -0.48348,-3.11892 0.3757,-4.45926 0.41471,-0.64695 5.24489,-5.581591 10.73372,-10.965862 8.11595,-7.961347 10.21102,-9.880097 11.21837,-10.274253 1.36486,-0.534041 2.69622,-0.452025 4.11073,0.253235 0.45766,0.228189 5.44873,5.017049 11.09125,10.641912 9.39129,9.361888 10.29204,10.336988 10.64805,11.526988 0.57385,1.91813 0.19643,2.96429 -1.88937,5.23714 -2.86803,3.12525 -4.99813,4.92408 -6.06872,5.12492 -2.08964,0.39202 -2.74709,-0.0582 -8.71576,-5.96786 -3.05594,-3.02575 -5.81631,-5.63404 -6.13417,-5.7962 -0.86818,-0.44293 -1.9662,-0.35487 -2.93416,0.23529 -0.47644,0.29049 -3.26146,2.90846 -6.18893,5.81773 -6.10814,6.07015 -6.7669,6.45645 -9.2167,5.40469 z"
       style="fill:#000000"
       id="path1-6" /></g></svg>
