<?xml version="1.0" encoding="UTF-8" standalone="no"?>
<!-- Created with Inkscape (http://www.inkscape.org/) -->

<svg
   width="237.63609mm"
   height="233.03185mm"
   viewBox="0 0 237.63609 233.03185"
   version="1.1"
   id="svg1"
   xml:space="preserve"
   xmlns:inkscape="http://www.inkscape.org/namespaces/inkscape"
   xmlns:sodipodi="http://sodipodi.sourceforge.net/DTD/sodipodi-0.dtd"
   xmlns="http://www.w3.org/2000/svg"
   xmlns:svg="http://www.w3.org/2000/svg"><sodipodi:namedview
     id="namedview1"
     pagecolor="#ffffff"
     bordercolor="#000000"
     borderopacity="0.25"
     inkscape:showpageshadow="2"
     inkscape:pageopacity="0.0"
     inkscape:pagecheckerboard="0"
     inkscape:deskcolor="#d1d1d1"
     inkscape:document-units="mm"><inkscape:page
       x="0"
       y="0"
       width="237.63609"
       height="233.03185"
       id="page2"
       margin="0"
       bleed="0" /></sodipodi:namedview><defs
     id="defs1" /><g
     inkscape:label="Layer 1"
     inkscape:groupmode="layer"
     id="layer1"
     transform="translate(-45.816753,-21.367859)"><path
       style="fill:#000000"
       d="m 117.12195,254.303 c 0,-0.33235 5.00618,-15.19057 7.22784,-21.45205 2.56392,-7.2261 2.40411,-6.73182 1.9791,-6.12131 -3.31224,4.75785 -4.00959,5.71831 -4.09199,5.63591 -0.15488,-0.15488 1.51327,-4.79433 5.91397,-16.44794 5.31072,-14.06347 13.57733,-36.33137 13.57733,-36.57349 0,-0.10374 -0.8632,0.71698 -1.91823,1.82383 -4.52629,4.74862 -18.16435,17.62228 -20.07847,18.95309 -0.61572,0.42808 -0.61917,0.426 -0.2283,-0.13729 0.21828,-0.31457 2.37256,-3.40657 4.78728,-6.87112 6.12442,-8.78708 6.89078,-9.92286 6.77411,-10.03953 -0.0564,-0.0564 -0.62694,0.35323 -1.26789,0.91026 -3.22919,2.80637 -15.84788,12.31286 -16.06096,12.09978 -0.0553,-0.0553 1.91341,-2.52073 4.37482,-5.47883 5.20641,-6.25701 15.59138,-19.09094 19.76781,-24.42941 1.59338,-2.03672 3.44175,-4.35796 4.10748,-5.15833 0.66573,-0.80036 1.38612,-1.68306 1.60086,-1.96154 0.37212,-0.48257 0.35939,-0.48994 -0.27101,-0.15691 -0.3638,0.19219 -2.74505,1.62484 -5.29167,3.18367 -5.69896,3.48844 -18.22701,10.91301 -26.19375,15.52335 -11.12361,6.43721 -28.763599,16.11935 -28.977789,15.90517 -0.0619,-0.0619 1.16428,-1.14095 2.72482,-2.3979 3.34774,-2.69648 13.00482,-10.6472 17.285409,-14.23116 10.11145,-8.4659 14.42392,-12.03091 16.73203,-13.83192 1.4328,-1.11802 2.4787,-2.03276 2.32422,-2.03276 -0.15448,0 -3.58896,0.53757 -7.63217,1.19459 -11.42347,1.8563 -12.55153,2.02777 -12.65562,1.92367 -0.0536,-0.0536 0.87989,-0.55539 2.07431,-1.11519 5.97944,-2.80246 30.90554,-15.35566 30.65596,-15.43886 -0.15806,-0.0527 -2.52402,0.0905 -5.25771,0.31815 -5.65897,0.47129 -16.48097,1.33056 -21.77137,1.72865 -4.39336,0.3306 -20.172469,1.0943 -20.284979,0.9818 -0.045,-0.045 3.2506,-1.42813 7.32349,-3.0737 4.07288,-1.64556 7.405239,-3.08012 7.405239,-3.18791 0,-0.23066 -4.134139,-0.6897 -9.524999,-1.05762 -2.11005,-0.14401 -9.90865,-0.38071 -17.33021,-0.52601 -7.42156,-0.14529 -17.00609,-0.40848 -21.29896,-0.58486 l -7.8052,-0.32069 3.175,-0.45442 c 1.74624,-0.24992 7.34218,-1.05377 12.43541,-1.78633 12.95575,-1.86341 55.614409,-7.3714 57.767039,-7.45875 0.574,-0.0233 0.28446,-0.14944 -3.92433,-1.70978 -1.81901,-0.67436 -7.05776,-2.63457 -11.64167,-4.35602 -4.583909,-1.72145 -12.501559,-4.62117 -17.594789,-6.44382 -8.66143,-3.09957 -13.10282,-4.71136 -18.7257,-6.79561 -1.27685,-0.47329 -2.2697,-0.91237 -2.20634,-0.97573 0.19583,-0.19582 11.77011,1.19894 48.845579,5.88614 8.52473,1.07773 12.57575,1.63591 13.49375,1.85927 0.75753,0.18431 0.1704,-0.1655 -7.54063,-4.49271 -6.57143,-3.6877 -12.5412,-7.21897 -13.09687,-7.74711 -0.25742,-0.24467 0.11446,-0.17671 1.05833,0.19341 0.80037,0.31385 3.59834,1.33889 6.21771,2.27786 3.84644,1.37885 8.46775,3.07167 10.94558,4.00946 0.19923,0.0754 -1.22952,-1.33217 -3.175,-3.12793 -5.33213,-4.92178 -49.566059,-49.167865 -49.360179,-49.373743 0.0985,-0.09849 0.38816,0.0047 0.64371,0.229216 0.50837,0.446713 0.72969,0.594577 25.46777,17.015258 20.830199,13.826704 37.037819,24.474599 37.570109,24.682359 0.33795,0.13191 0.33394,0.0593 -0.0273,-0.4941 -0.5067,-0.77619 -5.59991,-10.074325 -8.76128,-15.994561 -3.6325,-6.802517 -7.61483,-14.376329 -7.61483,-14.48232 0,-0.05384 2.52916,2.441266 5.62036,5.544682 3.0912,3.103417 5.65209,5.547382 5.69087,5.431034 0.0388,-0.116347 -0.98902,-3.253732 -2.284,-6.971964 -4.38507,-12.590652 -18.11486,-54.737613 -17.90099,-54.951482 0.0597,-0.0597 0.54829,0.766852 1.08574,1.836791 1.00247,1.995665 6.05268,11.290656 8.31658,15.306803 2.95772,5.246977 6.76882,11.923406 7.92917,13.890624 0.68668,1.164167 2.30075,3.902604 3.58683,6.085416 3.78486,6.423889 11.15566,18.448496 12.56921,20.505208 0.25004,0.363802 1.55107,2.351658 2.89117,4.417459 1.34011,2.065801 2.62039,3.908562 2.84506,4.095025 0.36033,0.29905 0.38886,0.21495 0.24196,-0.713293 -0.0916,-0.578774 -0.34898,-2.65966 -0.57198,-4.624192 -0.45613,-4.018398 -3.16667,-23.051113 -3.45148,-24.235466 -0.70417,-2.928203 1.07724,1.650988 12.10431,31.114633 3.34946,8.949528 6.19015,16.450473 6.31264,16.668753 0.27714,0.49385 -0.15764,1.81123 3.66749,-11.112505 3.98318,-13.457697 8.58299,-29.508718 13.91349,-48.551038 6.05206,-21.619952 6.20746,-22.163626 6.38364,-22.333855 0.0886,-0.08565 0.087,1.213492 -0.004,2.886981 -0.0907,1.67349 -0.33997,6.43599 -0.55401,10.583333 -0.21404,4.147344 -0.45037,8.195468 -0.52517,8.995833 -0.0748,0.800365 -0.25368,3.955521 -0.39751,7.011458 -0.14383,3.055937 -0.33529,6.389687 -0.42548,7.408333 -0.0902,1.018646 -0.0726,1.76411 0.0391,1.656588 0.1117,-0.107522 0.6906,-1.239044 1.28642,-2.514493 1.77803,-3.806107 4.1491,-8.335346 4.28988,-8.194566 0.0723,0.07229 -0.58975,4.460395 -1.47122,9.751333 -2.95023,17.708419 -6.39348,42.091608 -5.99955,42.485528 0.0537,0.0537 0.36377,-0.35399 0.68913,-0.9059 0.90394,-1.53343 6.67595,-9.632495 6.78624,-9.522205 0.0534,0.0534 -0.0773,0.67671 -0.29056,1.38514 -0.2132,0.70843 -0.33982,1.33587 -0.28137,1.39432 0.0584,0.0585 0.50057,-0.34562 0.98249,-0.89795 0.48191,-0.55233 4.68621,-5.302039 9.34287,-10.554909 9.11402,-10.280909 11.95053,-13.539486 19.48139,-22.380185 4.71388,-5.533772 8.46145,-9.914629 15.80164,-18.471895 1.94317,-2.265364 3.74624,-4.389895 4.00683,-4.721179 1.09781,-1.395641 0.67463,-0.328437 -1.67588,4.226311 -1.37052,2.655755 -6.72271,13.222552 -11.89374,23.48177 -5.17104,10.259218 -10.40939,20.587889 -11.64077,22.952603 -1.23139,2.364714 -2.18323,4.299474 -2.1152,4.299474 0.068,0 1.21389,-0.81511 2.54637,-1.81137 1.33248,-0.99626 2.77988,-2.038053 3.21644,-2.315104 l 0.79375,-0.503729 -0.50344,0.79375 c -1.04757,1.651643 -8.3387,10.657598 -12.32431,15.222908 -1.3101,1.50065 -2.337,2.77345 -2.282,2.82845 0.18103,0.18103 16.12895,-7.55165 34.29204,-16.627215 9.82266,-4.908087 17.66987,-8.784187 17.43825,-8.613553 -0.23162,0.170634 -1.36271,1.04494 -2.51354,1.942902 -1.15083,0.897962 -5.06898,3.927868 -8.707,6.733121 -3.63802,2.80526 -10.12692,7.89833 -14.41979,11.317935 -7.78511,6.20146 -20.44947,15.90648 -21.46843,16.45181 -0.29552,0.15816 -0.48585,0.33902 -0.42296,0.40191 0.0629,0.0629 3.6152,-0.42939 7.89402,-1.09395 4.27881,-0.66455 11.23248,-1.73361 15.45258,-2.37567 4.2201,-0.64207 10.76854,-1.65304 14.55208,-2.24661 25.58218,-4.01341 31.15294,-4.83734 31.82556,-4.70706 0.24948,0.0483 -0.61796,0.46391 -1.92764,0.92353 -1.30969,0.45961 -3.86953,1.37263 -5.68854,2.02893 -1.81901,0.6563 -5.2123,1.867 -7.54063,2.69044 -21.1258,7.47138 -23.65008,8.39643 -43.52395,15.94991 -2.25558,0.85728 -4.8982,1.84099 -5.8725,2.18601 -0.97429,0.34503 -1.73563,0.66315 -1.69185,0.70693 0.0438,0.0438 1.85296,0.3769 4.02041,0.74028 3.83907,0.64363 21.06063,4.06547 21.21719,4.21575 0.14771,0.14178 -1.14026,0.35971 -5.70086,0.96459 -2.51023,0.33294 -4.56406,0.68961 -4.56406,0.7926 0,0.10299 0.50601,0.26563 1.12448,0.36142 0.61846,0.0958 1.95791,0.3945 2.97656,0.6638 1.01865,0.26929 5.48349,1.33081 9.92187,2.35893 20.47098,4.74196 41.36443,9.81296 41.18216,9.99523 -0.0518,0.0518 -4.78487,-0.26125 -10.51788,-0.69574 -5.73301,-0.43448 -12.20959,-0.91991 -14.3924,-1.07874 -2.18281,-0.15882 -6.05234,-0.45804 -8.59896,-0.66491 -16.21356,-1.31714 -32.13847,-2.181 -31.55282,-1.71161 0.10983,0.088 0.91407,0.44017 1.7872,0.78254 0.87312,0.34238 3.13531,1.30229 5.02708,2.13314 1.89177,0.83085 3.66498,1.58936 3.94047,1.68557 1.42445,0.49745 -0.27894,0.32728 -5.01766,-0.50127 -2.90005,-0.50706 -9.44,-1.51984 -14.53323,-2.25061 -5.09322,-0.73078 -9.49854,-1.39882 -9.78958,-1.48453 -0.46798,-0.13781 -0.48328,-0.11121 -0.13229,0.23011 0.21828,0.21228 1.82562,1.52162 3.57187,2.90965 1.74625,1.38803 5.79438,4.69396 8.99584,7.3465 8.61273,7.13602 15.68222,12.71662 20.10833,15.87339 0.87312,0.62273 1.40891,1.07366 1.19062,1.00207 -0.21828,-0.0716 -3.92759,-1.33845 -8.2429,-2.81525 -4.31532,-1.4768 -8.00626,-2.68189 -8.20209,-2.67798 -0.41435,0.008 -0.50903,-0.0754 7.32675,6.47518 18.19891,15.21393 34.51824,28.98998 34.51824,29.13873 0,0.18809 -2.04557,-0.98066 -8.99583,-5.13984 -7.63088,-4.56647 -11.52253,-7.04331 -19.84375,-12.6296 -3.71078,-2.49117 -9.8425,-6.60817 -13.62604,-9.14891 -7.54219,-5.06476 -16.78108,-11.14768 -17.19792,-11.32317 -0.14552,-0.0613 -0.12775,0.0568 0.0395,0.26236 0.16723,0.20557 1.42855,2.39782 2.80291,4.87168 2.43244,4.37836 5.40096,9.60991 8.31368,14.65154 0.78825,1.3644 1.38335,2.53055 1.32245,2.59146 -0.13642,0.13642 -15.43268,-15.62848 -19.98998,-20.60241 -1.82623,-1.9932 -3.36551,-3.5789 -3.42062,-3.52379 -0.0551,0.0551 0.3336,1.09059 0.86381,2.30107 0.53021,1.21048 3.11407,7.26103 5.74192,13.44567 7.56044,17.79349 13.28926,30.8955 17.2954,39.5552 2.81729,6.08988 5.6257,12.9137 5.00904,12.17084 -0.36241,-0.43657 -2.82388,-4.00844 -5.46995,-7.9375 -2.64606,-3.92907 -5.5143,-8.15578 -6.37387,-9.39271 -0.85957,-1.23693 -2.20936,-3.22722 -2.99954,-4.42288 -1.4282,-2.16107 -2.23424,-3.05518 -1.83605,-2.03667 0.8829,2.25832 4.44651,14.6575 4.79842,16.69554 0.16134,0.93442 0.14541,0.96979 -0.21598,0.47963 -1.12277,-1.52277 -13.84087,-24.8906 -19.36817,-35.58645 l -3.34986,-6.4823 0.15369,1.85209 c 0.0845,1.01864 0.33149,4.29286 0.5488,7.27604 0.21732,2.98318 0.45927,6.13833 0.53767,7.01146 l 0.14254,1.5875 -0.43204,-0.92604 c -0.23762,-0.50933 -1.242,-2.89058 -2.23196,-5.29167 -0.98995,-2.40109 -3.40009,-8.11609 -5.35587,-12.7 -1.95578,-4.58391 -3.7801,-8.92969 -4.05405,-9.65729 l -0.49809,-1.32292 -0.21554,1.5875 c -0.9701,7.1451 -2.7696,18.66414 -2.94275,18.83728 -0.1052,0.10521 -1.46865,-8.33579 -1.68707,-10.44451 -0.15115,-1.45927 -0.59821,-2.19013 -0.59821,-0.97795 0,0.38454 -0.77943,5.71961 -1.73205,11.85571 -3.54909,22.86058 -5.79978,36.07925 -6.21956,36.52862 -0.12159,0.13015 -0.17017,-0.82235 -0.10795,-2.11667 0.0622,-1.29432 0.17164,-6.16331 0.24316,-10.81998 0.24003,-15.62989 1.98682,-36.53518 4.32761,-51.79218 0.26233,-1.70987 0.45255,-3.10886 0.42271,-3.10886 -0.0776,0 -9.92248,18.58851 -12.68172,23.94479 -1.27438,2.47386 -2.90903,5.61935 -3.63255,6.99 -4.74022,8.9799 -18.47938,36.7912 -23.21123,46.985 -5.24926,11.30844 -6.09176,13.03115 -6.09176,12.45622 z"
       id="path1" /></g></svg>
